<?xml version="1.0" encoding="UTF-8" standalone="no"?>
<svg xmlns="http://www.w3.org/2000/svg" version="1.1" viewBox="0.00 0.00 32.00 32.00" width="24" height="24">
<path fill="#ffffff" d="
  M 15.75 28.30
  L 3.89 13.18
  A 0.32 0.32 0.0 0 1 3.90 12.78
  L 9.43 6.12
  A 0.32 0.32 0.0 0 1 9.68 6.00
  L 22.34 6.00
  A 0.32 0.32 0.0 0 1 22.59 6.12
  L 28.12 12.78
  A 0.32 0.32 0.0 0 1 28.13 13.18
  L 16.25 28.30
  A 0.32 0.32 0.0 0 1 15.75 28.30
  Z
  M 7.57 11.46
  A 0.33 0.33 0.0 0 0 7.83 12.00
  L 11.31 12.00
  A 0.33 0.33 0.0 0 0 11.59 11.85
  L 13.77 8.51
  A 0.33 0.33 0.0 0 0 13.49 8.00
  L 10.62 7.99
  A 0.33 0.33 0.0 0 0 10.37 8.11
  L 7.57 11.46
  Z
  M 20.43 11.86
  A 0.33 0.33 0.0 0 0 20.71 12.01
  L 24.18 11.99
  A 0.33 0.33 0.0 0 0 24.43 11.45
  L 21.64 8.11
  A 0.33 0.33 0.0 0 0 21.39 7.99
  L 18.51 8.00
  A 0.33 0.33 0.0 0 0 18.23 8.51
  L 20.43 11.86
  Z
  M 14.23 11.46
  A 0.35 0.35 0.0 0 0 14.52 12.01
  L 17.53 11.99
  A 0.35 0.35 0.0 0 0 17.81 11.43
  L 16.30 9.29
  A 0.35 0.35 0.0 0 0 15.72 9.30
  L 14.23 11.46
  Z
  M 13.22 20.99
  L 11.39 14.50
  Q 11.25 14.00 10.74 14.00
  L 7.76 14.00
  Q 7.29 14.00 7.54 14.40
  Q 9.73 17.99 12.84 21.21
  Q 13.47 21.87 13.22 20.99
  Z
  M 15.85 22.74
  A 0.16 0.16 0.0 0 0 16.16 22.74
  L 18.46 14.69
  Q 18.66 14.00 17.94 14.00
  L 13.78 14.00
  Q 13.30 14.00 13.44 14.46
  L 15.85 22.74
  Z
  M 20.57 14.61
  L 18.77 21.01
  Q 18.40 22.35 19.26 21.26
  L 24.54 14.56
  Q 24.99 14.00 24.27 14.00
  L 21.37 14.00
  A 0.83 0.81 -81.7 0 0 20.57 14.61
  Z"
/>
</svg>
