<?xml version="1.0" encoding="UTF-8" standalone="no"?>
<svg xmlns="http://www.w3.org/2000/svg" version="1.1" viewBox="0.00 0.00 50.00 50.00" width="24" height="24">
<rect fill="#ffffff" x="33.00" y="2.08" width="2.00" height="6.86" rx="0.90"/>
<rect fill="#ffffff" x="-16.01" y="-2.57" transform="translate(33.03,15.98) rotate(45.0)" width="32.02" height="5.14" rx="2.53"/>
<rect fill="#ffffff" x="-4.51" y="-1.00" transform="translate(40.47,7.45) rotate(-45.0)" width="9.02" height="2.00" rx="0.97"/>
<path fill="#ffffff" d="
  M 24.64 33.20
  L 14.69 23.88
  A 0.35 0.35 0.0 0 1 14.62 23.48
  L 20.54 10.61
  A 0.35 0.35 0.0 0 1 21.11 10.51
  L 37.77 27.17
  A 0.35 0.35 0.0 0 1 37.66 27.74
  L 25.02 33.27
  A 0.35 0.35 0.0 0 1 24.64 33.20
  Z"
/>
<rect fill="#ffffff" x="39.11" y="13.00" width="6.78" height="2.00" rx="0.79"/>
<path fill="#ffffff" d="
  M 22.07 33.63
  A 0.57 0.57 0.0 0 1 22.08 34.44
  L 15.35 41.41
  A 5.25 4.96 44.0 0 1 8.13 41.33
  L 6.88 40.12
  A 5.25 4.96 44.0 0 1 6.55 32.90
  L 13.28 25.93
  A 0.57 0.57 0.0 0 1 14.08 25.92
  L 22.07 33.63
  Z"
/>
<path fill="#ffffff" d="
  M 30.46 41.86
  C 35.57 45.85 29.94 52.15 25.79 48.46
  Q 23.78 46.67 18.73 41.36
  Q 18.42 41.03 18.72 40.71
  L 23.68 35.37
  Q 24.03 34.99 24.54 34.99
  L 29.13 35.01
  A 0.88 0.87 0.3 0 1 30.00 35.88
  L 30.01 40.94
  Q 30.01 41.51 30.46 41.86
  Z
  M 27.13 38.56
  Q 27.29 38.72 27.49 38.80
  A 0.36 0.35 13.0 0 0 27.99 38.49
  L 28.02 37.49
  Q 28.03 36.95 27.49 36.98
  L 26.35 37.03
  Q 25.93 37.05 26.11 37.42
  Q 26.24 37.68 26.43 37.87
  A 1.78 0.05 46.2 0 0 27.13 38.56
  Z"
/>
</svg>
