<?xml version="1.0" encoding="UTF-8" standalone="no"?>
<svg xmlns="http://www.w3.org/2000/svg" version="1.1" viewBox="0.00 0.00 30.00 30.00" width="24" height="24">
<path fill="#ffffff" d="
  M 12.19 22.20
  Q 8.77 21.16 7.80 17.71
  Q 7.68 17.29 7.25 17.36
  L 3.74 17.90
  Q 3.11 18.00 3.24 17.36
  C 3.94 13.97 5.63 10.97 9.54 11.03
  A 1.23 1.22 21.9 0 0 10.42 10.66
  Q 17.06 3.74 26.74 3.02
  A 0.21 0.20 -0.1 0 1 26.97 3.24
  Q 26.25 12.91 19.35 19.56
  A 1.23 1.22 69.2 0 0 18.98 20.39
  C 18.85 24.38 16.23 26.04 12.64 26.75
  Q 12.01 26.88 12.10 26.24
  L 12.61 22.86
  Q 12.68 22.35 12.19 22.20
  Z
  M 20.96 11.00
  A 1.97 1.97 0.0 0 0 18.99 9.03
  A 1.97 1.97 0.0 0 0 17.02 11.00
  A 1.97 1.97 0.0 0 0 18.99 12.97
  A 1.97 1.97 0.0 0 0 20.96 11.00
  Z"
/>
<path fill="#ffffff" d="
  M 7.47 23.10
  Q 8.47 23.19 9.30 22.64
  Q 9.59 22.45 9.81 22.71
  L 10.02 22.96
  Q 10.08 23.04 10.02 23.11
  Q 8.26 25.21 5.49 24.94
  Q 5.09 24.90 5.05 24.51
  Q 4.79 21.80 6.77 20.05
  Q 6.93 19.91 7.09 20.04
  L 7.31 20.23
  Q 7.54 20.42 7.37 20.66
  Q 6.79 21.47 6.86 22.48
  Q 6.90 23.05 7.47 23.10
  Z"
/>
</svg>
